<?xml version="1.0" encoding="UTF-8" standalone="no"?>
<svg xmlns="http://www.w3.org/2000/svg" width="960" height="720" viewBox="0 0 960 720" style="border: 1px solid black;">
    <!-- <path d="M60 360   L275 27     L250 162 L720 162 L720 270 L250 270    L275 405" /> -->
    <!-- <polygon points="60,360 420,360 420,90" /> -->
    <!-- <polygon points="60,360 420,360 420,630" /> -->
    <!-- <polygon points="352,270 900,270 900,450 352,450" /> -->
    
    <!-- <polygon points="200,270 900,270 900,450 200,450" /> -->
    <!-- <polygon points="60,360 270,360 420,90" /> -->
    <!-- <polygon points="60,360 270,360 420,630" /> -->
    <g name="a" style="transform: scale(0.05,0.05);">
        <path d="M620,270 H60 V450 H620 L530,630 L900,360 L530,90" />
    </g>
    <!-- <path d="M60,360 L420,90 L320,270
            L900,270 L900,450 L320,450 L420,630" /> -->
    <!-- <path d="M60,360 L420,90 L420,360" /> -->
</svg>